<?xml version="1.0" encoding="UTF-8"?>
<!DOCTYPE svg PUBLIC "-//W3C//DTD SVG 1.1//EN" "http://www.w3.org/Graphics/SVG/1.1/DTD/svg11.dtd">
<svg xmlns="http://www.w3.org/2000/svg" xmlns:xlink="http://www.w3.org/1999/xlink" version="1.1" width="753px" height="703px" viewBox="-0.5 -0.5 753 703"><defs><clipPath id="mx-clip-2-281-93-30-0"><rect x="2" y="281" width="93" height="30"/></clipPath><clipPath id="mx-clip-100-281-92-30-0"><rect x="100" y="281" width="92" height="30"/></clipPath><clipPath id="mx-clip-2-311-93-30-0"><rect x="2" y="311" width="93" height="30"/></clipPath><clipPath id="mx-clip-100-311-92-30-0"><rect x="100" y="311" width="92" height="30"/></clipPath><clipPath id="mx-clip-2-341-93-30-0"><rect x="2" y="341" width="93" height="30"/></clipPath><clipPath id="mx-clip-100-341-92-30-0"><rect x="100" y="341" width="92" height="30"/></clipPath><clipPath id="mx-clip-2-371-93-30-0"><rect x="2" y="371" width="93" height="30"/></clipPath><clipPath id="mx-clip-100-371-92-30-0"><rect x="100" y="371" width="92" height="30"/></clipPath><clipPath id="mx-clip-2-401-93-30-0"><rect x="2" y="401" width="93" height="30"/></clipPath><clipPath id="mx-clip-100-401-92-30-0"><rect x="100" y="401" width="92" height="30"/></clipPath><clipPath id="mx-clip-562-281-100-30-0"><rect x="562" y="281" width="100" height="30"/></clipPath><clipPath id="mx-clip-668-281-84-30-0"><rect x="668" y="281" width="84" height="30"/></clipPath><clipPath id="mx-clip-562-311-100-30-0"><rect x="562" y="311" width="100" height="30"/></clipPath><clipPath id="mx-clip-668-311-84-30-0"><rect x="668" y="311" width="84" height="30"/></clipPath><clipPath id="mx-clip-562-341-100-30-0"><rect x="562" y="341" width="100" height="30"/></clipPath><clipPath id="mx-clip-668-341-84-30-0"><rect x="668" y="341" width="84" height="30"/></clipPath><clipPath id="mx-clip-562-371-100-30-0"><rect x="562" y="371" width="100" height="30"/></clipPath><clipPath id="mx-clip-668-371-84-30-0"><rect x="668" y="371" width="84" height="30"/></clipPath><clipPath id="mx-clip-562-401-100-30-0"><rect x="562" y="401" width="100" height="30"/></clipPath><clipPath id="mx-clip-668-401-84-30-0"><rect x="668" y="401" width="84" height="30"/></clipPath><clipPath id="mx-clip-283-521-91-30-0"><rect x="283" y="521" width="91" height="30"/></clipPath><clipPath id="mx-clip-380-521-93-30-0"><rect x="380" y="521" width="93" height="30"/></clipPath><clipPath id="mx-clip-283-551-91-30-0"><rect x="283" y="551" width="91" height="30"/></clipPath><clipPath id="mx-clip-380-551-93-30-0"><rect x="380" y="551" width="93" height="30"/></clipPath><clipPath id="mx-clip-283-581-91-30-0"><rect x="283" y="581" width="91" height="30"/></clipPath><clipPath id="mx-clip-380-581-93-30-0"><rect x="380" y="581" width="93" height="30"/></clipPath><clipPath id="mx-clip-283-611-91-30-0"><rect x="283" y="611" width="91" height="30"/></clipPath><clipPath id="mx-clip-380-611-93-30-0"><rect x="380" y="611" width="93" height="30"/></clipPath><clipPath id="mx-clip-283-641-91-30-0"><rect x="283" y="641" width="91" height="30"/></clipPath><clipPath id="mx-clip-380-641-93-30-0"><rect x="380" y="641" width="93" height="30"/></clipPath><clipPath id="mx-clip-283-671-91-30-0"><rect x="283" y="671" width="91" height="30"/></clipPath><clipPath id="mx-clip-380-671-93-30-0"><rect x="380" y="671" width="93" height="30"/></clipPath><clipPath id="mx-clip-283-31-91-30-0"><rect x="283" y="31" width="91" height="30"/></clipPath><clipPath id="mx-clip-380-31-93-30-0"><rect x="380" y="31" width="93" height="30"/></clipPath><clipPath id="mx-clip-283-61-91-30-0"><rect x="283" y="61" width="91" height="30"/></clipPath><clipPath id="mx-clip-380-61-93-30-0"><rect x="380" y="61" width="93" height="30"/></clipPath><clipPath id="mx-clip-283-91-91-30-0"><rect x="283" y="91" width="91" height="30"/></clipPath><clipPath id="mx-clip-380-91-93-30-0"><rect x="380" y="91" width="93" height="30"/></clipPath><clipPath id="mx-clip-283-121-91-30-0"><rect x="283" y="121" width="91" height="30"/></clipPath><clipPath id="mx-clip-380-121-93-30-0"><rect x="380" y="121" width="93" height="30"/></clipPath><clipPath id="mx-clip-283-151-91-30-0"><rect x="283" y="151" width="91" height="30"/></clipPath><clipPath id="mx-clip-380-151-93-30-0"><rect x="380" y="151" width="93" height="30"/></clipPath><clipPath id="mx-clip-283-281-91-30-0"><rect x="283" y="281" width="91" height="30"/></clipPath><clipPath id="mx-clip-380-281-93-30-0"><rect x="380" y="281" width="93" height="30"/></clipPath><clipPath id="mx-clip-283-311-91-30-0"><rect x="283" y="311" width="91" height="30"/></clipPath><clipPath id="mx-clip-380-311-93-30-0"><rect x="380" y="311" width="93" height="30"/></clipPath><clipPath id="mx-clip-283-341-91-30-0"><rect x="283" y="341" width="91" height="30"/></clipPath><clipPath id="mx-clip-380-341-93-30-0"><rect x="380" y="341" width="93" height="30"/></clipPath><clipPath id="mx-clip-283-371-91-30-0"><rect x="283" y="371" width="91" height="30"/></clipPath><clipPath id="mx-clip-380-371-93-30-0"><rect x="380" y="371" width="93" height="30"/></clipPath><clipPath id="mx-clip-283-401-91-30-0"><rect x="283" y="401" width="91" height="30"/></clipPath><clipPath id="mx-clip-380-401-93-30-0"><rect x="380" y="401" width="93" height="30"/></clipPath></defs><g><path d="M 96.5 431 L 96.5 626 L 272.9 626" fill="none" stroke="#82b366" stroke-width="3" stroke-miterlimit="10" pointer-events="stroke"/><path d="M 279.65 626 L 270.65 630.5 L 272.9 626 L 270.65 621.5 Z" fill="#82b366" stroke="#82b366" stroke-width="3" stroke-miterlimit="10" pointer-events="all"/><path d="M 1.5 281 L 1.5 251 L 191.5 251 L 191.5 281" fill="#dae8fc" stroke="#6c8ebf" stroke-width="3" stroke-miterlimit="10" pointer-events="all"/><path d="M 1.5 281 L 1.5 431 L 191.5 431 L 191.5 281" fill="none" stroke="#6c8ebf" stroke-width="3" stroke-miterlimit="10" pointer-events="none"/><path d="M 1.5 281 L 191.5 281" fill="none" stroke="#6c8ebf" stroke-width="3" stroke-miterlimit="10" pointer-events="none"/><path d="M 94 281 L 94 311 L 94 341 L 94 371 L 94 401 L 94 431" fill="none" stroke="#6c8ebf" stroke-width="3" stroke-miterlimit="10" pointer-events="none"/><g fill="rgb(0, 0, 0)" font-family="Helvetica" font-weight="bold" pointer-events="none" text-anchor="middle" font-size="12px"><text x="96" y="270.5">deliverymans</text></g><rect x="1.5" y="281" width="92.5" height="30" fill="#f5f5f5" stroke="none" pointer-events="none"/><path d="M 1.5 281 M 94 281 M 94 311 M 1.5 311" fill="none" stroke="#666666" stroke-linecap="square" stroke-miterlimit="10" pointer-events="none"/><g fill="#333333" font-family="Helvetica" pointer-events="none" clip-path="url(#mx-clip-2-281-93-30-0)" text-anchor="middle" font-size="12px"><text x="47.25" y="300.5">id </text></g><rect x="94" y="281" width="97.5" height="30" fill="#fff2cc" stroke="none" pointer-events="none"/><path d="M 94 281 M 191.5 281 M 191.5 311 M 94 311" fill="none" stroke="#d6b656" stroke-linecap="square" stroke-miterlimit="10" pointer-events="none"/><g fill="rgb(0, 0, 0)" font-family="Helvetica" pointer-events="none" clip-path="url(#mx-clip-100-281-92-30-0)" font-size="12px"><text x="101.5" y="300.5">uuid (PK)</text></g><rect x="1.5" y="311" width="92.5" height="30" fill="#f5f5f5" stroke="none" pointer-events="none"/><path d="M 1.5 311 M 94 311 M 94 341 M 1.5 341" fill="none" stroke="#666666" stroke-linecap="square" stroke-miterlimit="10" pointer-events="none"/><g fill="#333333" font-family="Helvetica" pointer-events="none" clip-path="url(#mx-clip-2-311-93-30-0)" text-anchor="middle" font-size="12px"><text x="47.25" y="330.5">profile_type </text></g><rect x="94" y="311" width="97.5" height="30" fill="#fff2cc" stroke="none" pointer-events="none"/><path d="M 94 311 M 191.5 311 M 191.5 341 M 94 341" fill="none" stroke="#d6b656" stroke-linecap="square" stroke-miterlimit="10" pointer-events="none"/><g fill="rgb(0, 0, 0)" font-family="Helvetica" pointer-events="none" clip-path="url(#mx-clip-100-311-92-30-0)" font-size="12px"><text x="101.5" y="330.5">Int</text></g><rect x="1.5" y="341" width="92.5" height="30" fill="#f5f5f5" stroke="none" pointer-events="none"/><path d="M 1.5 341 M 94 341 M 94 371 M 1.5 371" fill="none" stroke="#666666" stroke-linecap="square" stroke-miterlimit="10" pointer-events="none"/><g fill="#333333" font-family="Helvetica" pointer-events="none" clip-path="url(#mx-clip-2-341-93-30-0)" text-anchor="middle" font-size="12px"><text x="47.25" y="360.5">email</text></g><rect x="94" y="341" width="97.5" height="30" fill="#fff2cc" stroke="none" pointer-events="none"/><path d="M 94 341 M 191.5 341 M 191.5 371 M 94 371" fill="none" stroke="#d6b656" stroke-linecap="square" stroke-miterlimit="10" pointer-events="none"/><g fill="rgb(0, 0, 0)" font-family="Helvetica" pointer-events="none" clip-path="url(#mx-clip-100-341-92-30-0)" font-size="12px"><text x="101.5" y="360.5">string</text></g><rect x="1.5" y="371" width="92.5" height="30" fill="#f5f5f5" stroke="none" pointer-events="none"/><path d="M 1.5 371 M 94 371 M 94 401 M 1.5 401" fill="none" stroke="#666666" stroke-linecap="square" stroke-miterlimit="10" pointer-events="none"/><g fill="#333333" font-family="Helvetica" pointer-events="none" clip-path="url(#mx-clip-2-371-93-30-0)" text-anchor="middle" font-size="12px"><text x="47.25" y="390.5">username</text></g><rect x="94" y="371" width="97.5" height="30" fill="#fff2cc" stroke="none" pointer-events="none"/><path d="M 94 371 M 191.5 371 M 191.5 401 M 94 401" fill="none" stroke="#d6b656" stroke-linecap="square" stroke-miterlimit="10" pointer-events="none"/><g fill="rgb(0, 0, 0)" font-family="Helvetica" pointer-events="none" clip-path="url(#mx-clip-100-371-92-30-0)" font-size="12px"><text x="101.5" y="390.5">string</text></g><rect x="1.5" y="401" width="92.5" height="30" fill="#f5f5f5" stroke="none" pointer-events="none"/><path d="M 1.5 401 M 94 401 M 94 431 M 1.5 431" fill="none" stroke="#666666" stroke-linecap="square" stroke-miterlimit="10" pointer-events="none"/><g fill="#333333" font-family="Helvetica" pointer-events="none" clip-path="url(#mx-clip-2-401-93-30-0)" text-anchor="middle" font-size="12px"><text x="47.25" y="420.5">password</text></g><rect x="94" y="401" width="97.5" height="30" fill="#fff2cc" stroke="none" pointer-events="none"/><path d="M 94 401 M 191.5 401 M 191.5 431 M 94 431" fill="none" stroke="#d6b656" stroke-linecap="square" stroke-miterlimit="10" pointer-events="none"/><g fill="rgb(0, 0, 0)" font-family="Helvetica" pointer-events="none" clip-path="url(#mx-clip-100-401-92-30-0)" font-size="12px"><text x="101.5" y="420.5">string</text></g><path d="M 656.5 431 L 656.5 626 L 483.1 626" fill="none" stroke="#82b366" stroke-width="3" stroke-miterlimit="10" pointer-events="none"/><path d="M 476.35 626 L 485.35 621.5 L 483.1 626 L 485.35 630.5 Z" fill="#82b366" stroke="#82b366" stroke-width="3" stroke-miterlimit="10" pointer-events="none"/><path d="M 561.5 281 L 561.5 251 L 751.5 251 L 751.5 281" fill="#dae8fc" stroke="#6c8ebf" stroke-width="3" stroke-miterlimit="10" pointer-events="none"/><path d="M 561.5 281 L 561.5 431 L 751.5 431 L 751.5 281" fill="none" stroke="#6c8ebf" stroke-width="3" stroke-miterlimit="10" pointer-events="none"/><path d="M 561.5 281 L 751.5 281" fill="none" stroke="#6c8ebf" stroke-width="3" stroke-miterlimit="10" pointer-events="none"/><path d="M 661.5 281 L 661.5 311 L 661.5 341 L 661.5 371 L 661.5 401 L 661.5 431" fill="none" stroke="#6c8ebf" stroke-width="3" stroke-miterlimit="10" pointer-events="none"/><g fill="rgb(0, 0, 0)" font-family="Helvetica" font-weight="bold" pointer-events="none" text-anchor="middle" font-size="12px"><text x="656" y="270.5">clients</text></g><rect x="561.5" y="281" width="100" height="30" fill="#f5f5f5" stroke="none" pointer-events="none"/><path d="M 561.5 281 M 661.5 281 M 661.5 311 M 561.5 311" fill="none" stroke="#666666" stroke-linecap="square" stroke-miterlimit="10" pointer-events="none"/><g fill="#333333" font-family="Helvetica" pointer-events="none" clip-path="url(#mx-clip-562-281-100-30-0)" text-anchor="middle" font-size="12px"><text x="611" y="300.5">id </text></g><rect x="661.5" y="281" width="90" height="30" fill="#fff2cc" stroke="none" pointer-events="none"/><path d="M 661.5 281 M 751.5 281 M 751.5 311 M 661.5 311" fill="none" stroke="#d6b656" stroke-linecap="square" stroke-miterlimit="10" pointer-events="none"/><g fill="rgb(0, 0, 0)" font-family="Helvetica" pointer-events="none" clip-path="url(#mx-clip-668-281-84-30-0)" font-size="12px"><text x="669" y="300.5">uuid (PK)</text></g><rect x="561.5" y="311" width="100" height="30" fill="#f5f5f5" stroke="none" pointer-events="none"/><path d="M 561.5 311 M 661.5 311 M 661.5 341 M 561.5 341" fill="none" stroke="#666666" stroke-linecap="square" stroke-miterlimit="10" pointer-events="none"/><g fill="#333333" font-family="Helvetica" pointer-events="none" clip-path="url(#mx-clip-562-311-100-30-0)" text-anchor="middle" font-size="12px"><text x="611" y="330.5">profile_type </text></g><rect x="661.5" y="311" width="90" height="30" fill="#fff2cc" stroke="none" pointer-events="none"/><path d="M 661.5 311 M 751.5 311 M 751.5 341 M 661.5 341" fill="none" stroke="#d6b656" stroke-linecap="square" stroke-miterlimit="10" pointer-events="none"/><g fill="rgb(0, 0, 0)" font-family="Helvetica" pointer-events="none" clip-path="url(#mx-clip-668-311-84-30-0)" font-size="12px"><text x="669" y="330.5">Int</text></g><rect x="561.5" y="341" width="100" height="30" fill="#f5f5f5" stroke="none" pointer-events="none"/><path d="M 561.5 341 M 661.5 341 M 661.5 371 M 561.5 371" fill="none" stroke="#666666" stroke-linecap="square" stroke-miterlimit="10" pointer-events="none"/><g fill="#333333" font-family="Helvetica" pointer-events="none" clip-path="url(#mx-clip-562-341-100-30-0)" text-anchor="middle" font-size="12px"><text x="611" y="360.5">email</text></g><rect x="661.5" y="341" width="90" height="30" fill="#fff2cc" stroke="none" pointer-events="none"/><path d="M 661.5 341 M 751.5 341 M 751.5 371 M 661.5 371" fill="none" stroke="#d6b656" stroke-linecap="square" stroke-miterlimit="10" pointer-events="none"/><g fill="rgb(0, 0, 0)" font-family="Helvetica" pointer-events="none" clip-path="url(#mx-clip-668-341-84-30-0)" font-size="12px"><text x="669" y="360.5">string</text></g><rect x="561.5" y="371" width="100" height="30" fill="#f5f5f5" stroke="none" pointer-events="none"/><path d="M 561.5 371 M 661.5 371 M 661.5 401 M 561.5 401" fill="none" stroke="#666666" stroke-linecap="square" stroke-miterlimit="10" pointer-events="none"/><g fill="#333333" font-family="Helvetica" pointer-events="none" clip-path="url(#mx-clip-562-371-100-30-0)" text-anchor="middle" font-size="12px"><text x="611" y="390.5">username</text></g><rect x="661.5" y="371" width="90" height="30" fill="#fff2cc" stroke="none" pointer-events="none"/><path d="M 661.5 371 M 751.5 371 M 751.5 401 M 661.5 401" fill="none" stroke="#d6b656" stroke-linecap="square" stroke-miterlimit="10" pointer-events="none"/><g fill="rgb(0, 0, 0)" font-family="Helvetica" pointer-events="none" clip-path="url(#mx-clip-668-371-84-30-0)" font-size="12px"><text x="669" y="390.5">string</text></g><rect x="561.5" y="401" width="100" height="30" fill="#f5f5f5" stroke="none" pointer-events="none"/><path d="M 561.5 401 M 661.5 401 M 661.5 431 M 561.5 431" fill="none" stroke="#666666" stroke-linecap="square" stroke-miterlimit="10" pointer-events="none"/><g fill="#333333" font-family="Helvetica" pointer-events="none" clip-path="url(#mx-clip-562-401-100-30-0)" text-anchor="middle" font-size="12px"><text x="611" y="420.5">password</text></g><rect x="661.5" y="401" width="90" height="30" fill="#fff2cc" stroke="none" pointer-events="none"/><path d="M 661.5 401 M 751.5 401 M 751.5 431 M 661.5 431" fill="none" stroke="#d6b656" stroke-linecap="square" stroke-miterlimit="10" pointer-events="none"/><g fill="rgb(0, 0, 0)" font-family="Helvetica" pointer-events="none" clip-path="url(#mx-clip-668-401-84-30-0)" font-size="12px"><text x="669" y="420.5">string</text></g><path d="M 283 521 L 283 491 L 473 491 L 473 521" fill="#dae8fc" stroke="#6c8ebf" stroke-width="3" stroke-miterlimit="10" pointer-events="none"/><path d="M 283 521 L 283 701 L 473 701 L 473 521" fill="none" stroke="#6c8ebf" stroke-width="3" stroke-miterlimit="10" pointer-events="none"/><path d="M 283 521 L 473 521" fill="none" stroke="#6c8ebf" stroke-width="3" stroke-miterlimit="10" pointer-events="none"/><path d="M 374 521 L 374 551 L 374 581 L 374 611 L 374 641 L 374 671 L 374 701" fill="none" stroke="#6c8ebf" stroke-width="3" stroke-miterlimit="10" pointer-events="none"/><g fill="rgb(0, 0, 0)" font-family="Helvetica" font-weight="bold" pointer-events="none" text-anchor="middle" font-size="12px"><text x="377.5" y="510.5">deliveries</text></g><rect x="283" y="521" width="91" height="30" fill="#f5f5f5" stroke="none" pointer-events="none"/><path d="M 283 521 M 374 521 M 374 551 M 283 551" fill="none" stroke="#666666" stroke-linecap="square" stroke-miterlimit="10" pointer-events="none"/><g fill="#333333" font-family="Helvetica" pointer-events="none" clip-path="url(#mx-clip-283-521-91-30-0)" text-anchor="middle" font-size="12px"><text x="328" y="540.5">id </text></g><rect x="374" y="521" width="99" height="30" fill="#fff2cc" stroke="none" pointer-events="none"/><path d="M 374 521 M 473 521 M 473 551 M 374 551" fill="none" stroke="#d6b656" stroke-linecap="square" stroke-miterlimit="10" pointer-events="none"/><g fill="rgb(0, 0, 0)" font-family="Helvetica" pointer-events="none" clip-path="url(#mx-clip-380-521-93-30-0)" font-size="12px"><text x="381.5" y="540.5">uuid (PK)</text></g><rect x="283" y="551" width="91" height="30" fill="#f5f5f5" stroke="none" pointer-events="none"/><path d="M 283 551 M 374 551 M 374 581 M 283 581" fill="none" stroke="#666666" stroke-linecap="square" stroke-miterlimit="10" pointer-events="none"/><g fill="#333333" font-family="Helvetica" pointer-events="none" clip-path="url(#mx-clip-283-551-91-30-0)" text-anchor="middle" font-size="12px"><text x="328" y="570.5">item_name</text></g><rect x="374" y="551" width="99" height="30" fill="#fff2cc" stroke="none" pointer-events="none"/><path d="M 374 551 M 473 551 M 473 581 M 374 581" fill="none" stroke="#d6b656" stroke-linecap="square" stroke-miterlimit="10" pointer-events="none"/><g fill="rgb(0, 0, 0)" font-family="Helvetica" pointer-events="none" clip-path="url(#mx-clip-380-551-93-30-0)" font-size="12px"><text x="381.5" y="570.5">string</text></g><rect x="283" y="581" width="91" height="30" fill="#f5f5f5" stroke="none" pointer-events="none"/><path d="M 283 581 M 374 581 M 374 611 M 283 611" fill="none" stroke="#666666" stroke-linecap="square" stroke-miterlimit="10" pointer-events="none"/><g fill="#333333" font-family="Helvetica" pointer-events="none" clip-path="url(#mx-clip-283-581-91-30-0)" text-anchor="middle" font-size="12px"><text x="328" y="600.5">id_client</text></g><rect x="374" y="581" width="99" height="30" fill="#fff2cc" stroke="none" pointer-events="none"/><path d="M 374 581 M 473 581 M 473 611 M 374 611" fill="none" stroke="#d6b656" stroke-linecap="square" stroke-miterlimit="10" pointer-events="none"/><g fill="rgb(0, 0, 0)" font-family="Helvetica" pointer-events="none" clip-path="url(#mx-clip-380-581-93-30-0)" font-size="12px"><text x="381.5" y="600.5">uuid (FK)</text></g><rect x="283" y="611" width="91" height="30" fill="#f5f5f5" stroke="none" pointer-events="none"/><path d="M 283 611 M 374 611 M 374 641 M 283 641" fill="none" stroke="#666666" stroke-linecap="square" stroke-miterlimit="10" pointer-events="none"/><g fill="#333333" font-family="Helvetica" pointer-events="none" clip-path="url(#mx-clip-283-611-91-30-0)" text-anchor="middle" font-size="12px"><text x="328" y="630.5">id_deliveryman</text></g><rect x="374" y="611" width="99" height="30" fill="#fff2cc" stroke="none" pointer-events="none"/><path d="M 374 611 M 473 611 M 473 641 M 374 641" fill="none" stroke="#d6b656" stroke-linecap="square" stroke-miterlimit="10" pointer-events="none"/><g fill="rgb(0, 0, 0)" font-family="Helvetica" pointer-events="none" clip-path="url(#mx-clip-380-611-93-30-0)" font-size="12px"><text x="381.5" y="630.5">uuid (FK)</text></g><rect x="283" y="641" width="91" height="30" fill="#f5f5f5" stroke="none" pointer-events="none"/><path d="M 283 641 M 374 641 M 374 671 M 283 671" fill="none" stroke="#666666" stroke-linecap="square" stroke-miterlimit="10" pointer-events="none"/><g fill="#333333" font-family="Helvetica" pointer-events="none" clip-path="url(#mx-clip-283-641-91-30-0)" text-anchor="middle" font-size="12px"><text x="328" y="660.5">created_at</text></g><rect x="374" y="641" width="99" height="30" fill="#fff2cc" stroke="none" pointer-events="none"/><path d="M 374 641 M 473 641 M 473 671 M 374 671" fill="none" stroke="#d6b656" stroke-linecap="square" stroke-miterlimit="10" pointer-events="none"/><g fill="rgb(0, 0, 0)" font-family="Helvetica" pointer-events="none" clip-path="url(#mx-clip-380-641-93-30-0)" font-size="12px"><text x="381.5" y="660.5">DateTime</text></g><rect x="283" y="671" width="91" height="30" fill="#f5f5f5" stroke="none" pointer-events="none"/><path d="M 283 671 M 374 671 M 374 701 M 283 701" fill="none" stroke="#666666" stroke-linecap="square" stroke-miterlimit="10" pointer-events="none"/><g fill="#333333" font-family="Helvetica" pointer-events="none" clip-path="url(#mx-clip-283-671-91-30-0)" text-anchor="middle" font-size="12px"><text x="328" y="690.5">end_date</text></g><rect x="374" y="671" width="99" height="30" fill="#fff2cc" stroke="none" pointer-events="none"/><path d="M 374 671 M 473 671 M 473 701 M 374 701" fill="none" stroke="#d6b656" stroke-linecap="square" stroke-miterlimit="10" pointer-events="none"/><g fill="rgb(0, 0, 0)" font-family="Helvetica" pointer-events="none" clip-path="url(#mx-clip-380-671-93-30-0)" font-size="12px"><text x="381.5" y="690.5">DateTime</text></g><path d="M 378 181 L 378 240.9" fill="none" stroke="#d79b00" stroke-width="3" stroke-miterlimit="10" pointer-events="none"/><path d="M 378 247.65 L 373.5 238.65 L 378 240.9 L 382.5 238.65 Z" fill="#d79b00" stroke="#d79b00" stroke-width="3" stroke-miterlimit="10" pointer-events="none"/><path d="M 283 31 L 283 1 L 473 1 L 473 31" fill="#dae8fc" stroke="#6c8ebf" stroke-width="3" stroke-miterlimit="10" pointer-events="none"/><path d="M 283 31 L 283 181 L 473 181 L 473 31" fill="none" stroke="#6c8ebf" stroke-width="3" stroke-miterlimit="10" pointer-events="none"/><path d="M 283 31 L 473 31" fill="none" stroke="#6c8ebf" stroke-width="3" stroke-miterlimit="10" pointer-events="none"/><path d="M 374 31 L 374 61 L 374 91 L 374 121 L 374 151 L 374 181" fill="none" stroke="#6c8ebf" stroke-width="3" stroke-miterlimit="10" pointer-events="none"/><g fill="rgb(0, 0, 0)" font-family="Helvetica" font-weight="bold" pointer-events="none" text-anchor="middle" font-size="12px"><text x="377.5" y="20.5">profiles</text></g><rect x="283" y="31" width="91" height="30" fill="#f5f5f5" stroke="none" pointer-events="none"/><path d="M 283 31 M 374 31 M 374 61 M 283 61" fill="none" stroke="#666666" stroke-linecap="square" stroke-miterlimit="10" pointer-events="none"/><g fill="#333333" font-family="Helvetica" pointer-events="none" clip-path="url(#mx-clip-283-31-91-30-0)" text-anchor="middle" font-size="12px"><text x="328" y="50.5">id </text></g><rect x="374" y="31" width="99" height="30" fill="#fff2cc" stroke="none" pointer-events="none"/><path d="M 374 31 M 473 31 M 473 61 M 374 61" fill="none" stroke="#d6b656" stroke-linecap="square" stroke-miterlimit="10" pointer-events="none"/><g fill="rgb(0, 0, 0)" font-family="Helvetica" pointer-events="none" clip-path="url(#mx-clip-380-31-93-30-0)" font-size="12px"><text x="381.5" y="50.5">uuid (PK)</text></g><rect x="283" y="61" width="91" height="30" fill="#f5f5f5" stroke="none" pointer-events="none"/><path d="M 283 61 M 374 61 M 374 91 M 283 91" fill="none" stroke="#666666" stroke-linecap="square" stroke-miterlimit="10" pointer-events="none"/><g fill="#333333" font-family="Helvetica" pointer-events="none" clip-path="url(#mx-clip-283-61-91-30-0)" text-anchor="middle" font-size="12px"><text x="328" y="80.5">type </text></g><rect x="374" y="61" width="99" height="30" fill="#fff2cc" stroke="none" pointer-events="none"/><path d="M 374 61 M 473 61 M 473 91 M 374 91" fill="none" stroke="#d6b656" stroke-linecap="square" stroke-miterlimit="10" pointer-events="none"/><g fill="rgb(0, 0, 0)" font-family="Helvetica" pointer-events="none" clip-path="url(#mx-clip-380-61-93-30-0)" font-size="12px"><text x="381.5" y="80.5">Int</text></g><rect x="283" y="91" width="91" height="30" fill="#f5f5f5" stroke="none" pointer-events="none"/><path d="M 283 91 M 374 91 M 374 121 M 283 121" fill="none" stroke="#666666" stroke-linecap="square" stroke-miterlimit="10" pointer-events="none"/><g fill="#333333" font-family="Helvetica" pointer-events="none" clip-path="url(#mx-clip-283-91-91-30-0)" text-anchor="middle" font-size="12px"><text x="328" y="110.5">name</text></g><rect x="374" y="91" width="99" height="30" fill="#fff2cc" stroke="none" pointer-events="none"/><path d="M 374 91 M 473 91 M 473 121 M 374 121" fill="none" stroke="#d6b656" stroke-linecap="square" stroke-miterlimit="10" pointer-events="none"/><g fill="rgb(0, 0, 0)" font-family="Helvetica" pointer-events="none" clip-path="url(#mx-clip-380-91-93-30-0)" font-size="12px"><text x="381.5" y="110.5">string</text></g><rect x="283" y="121" width="91" height="30" fill="#f5f5f5" stroke="none" pointer-events="none"/><path d="M 283 121 M 374 121 M 374 151 M 283 151" fill="none" stroke="#666666" stroke-linecap="square" stroke-miterlimit="10" pointer-events="none"/><g fill="#333333" font-family="Helvetica" pointer-events="none" clip-path="url(#mx-clip-283-121-91-30-0)" text-anchor="middle" font-size="12px"><text x="328" y="140.5">created_at</text></g><rect x="374" y="121" width="99" height="30" fill="#fff2cc" stroke="none" pointer-events="none"/><path d="M 374 121 M 473 121 M 473 151 M 374 151" fill="none" stroke="#d6b656" stroke-linecap="square" stroke-miterlimit="10" pointer-events="none"/><g fill="rgb(0, 0, 0)" font-family="Helvetica" pointer-events="none" clip-path="url(#mx-clip-380-121-93-30-0)" font-size="12px"><text x="381.5" y="140.5">DateTime</text></g><rect x="283" y="151" width="91" height="30" fill="#f5f5f5" stroke="none" pointer-events="none"/><path d="M 283 151 M 374 151 M 374 181 M 283 181" fill="none" stroke="#666666" stroke-linecap="square" stroke-miterlimit="10" pointer-events="none"/><g fill="#333333" font-family="Helvetica" pointer-events="none" clip-path="url(#mx-clip-283-151-91-30-0)" text-anchor="middle" font-size="12px"><text x="328" y="170.5">updated_at</text></g><rect x="374" y="151" width="99" height="30" fill="#fff2cc" stroke="none" pointer-events="none"/><path d="M 374 151 M 473 151 M 473 181 M 374 181" fill="none" stroke="#d6b656" stroke-linecap="square" stroke-miterlimit="10" pointer-events="none"/><g fill="rgb(0, 0, 0)" font-family="Helvetica" pointer-events="none" clip-path="url(#mx-clip-380-151-93-30-0)" font-size="12px"><text x="381.5" y="170.5">DateTime</text></g><path d="M 283 106 L 96.5 106 L 96.5 240.9" fill="none" stroke="#d6b656" stroke-width="3" stroke-miterlimit="10" pointer-events="none"/><path d="M 96.5 247.65 L 92 238.65 L 96.5 240.9 L 101 238.65 Z" fill="#d6b656" stroke="#d6b656" stroke-width="3" stroke-miterlimit="10" pointer-events="none"/><path d="M 473 106 L 656.5 106 L 656.5 240.9" fill="none" stroke="#d79b00" stroke-width="3" stroke-miterlimit="10" pointer-events="none"/><path d="M 656.5 247.65 L 652 238.65 L 656.5 240.9 L 661 238.65 Z" fill="#d79b00" stroke="#d79b00" stroke-width="3" stroke-miterlimit="10" pointer-events="none"/><path d="M 283 281 L 283 251 L 473 251 L 473 281" fill="#dae8fc" stroke="#6c8ebf" stroke-width="3" stroke-miterlimit="10" pointer-events="none"/><path d="M 283 281 L 283 431 L 473 431 L 473 281" fill="none" stroke="#6c8ebf" stroke-width="3" stroke-miterlimit="10" pointer-events="none"/><path d="M 283 281 L 473 281" fill="none" stroke="#6c8ebf" stroke-width="3" stroke-miterlimit="10" pointer-events="none"/><path d="M 374 281 L 374 311 L 374 341 L 374 371 L 374 401 L 374 431" fill="none" stroke="#6c8ebf" stroke-width="3" stroke-miterlimit="10" pointer-events="none"/><g fill="rgb(0, 0, 0)" font-family="Helvetica" font-weight="bold" pointer-events="none" text-anchor="middle" font-size="12px"><text x="377.5" y="270.5">admin</text></g><rect x="283" y="281" width="91" height="30" fill="#f5f5f5" stroke="none" pointer-events="none"/><path d="M 283 281 M 374 281 M 374 311 M 283 311" fill="none" stroke="#666666" stroke-linecap="square" stroke-miterlimit="10" pointer-events="none"/><g fill="#333333" font-family="Helvetica" pointer-events="none" clip-path="url(#mx-clip-283-281-91-30-0)" text-anchor="middle" font-size="12px"><text x="328" y="300.5">id </text></g><rect x="374" y="281" width="99" height="30" fill="#fff2cc" stroke="none" pointer-events="none"/><path d="M 374 281 M 473 281 M 473 311 M 374 311" fill="none" stroke="#d6b656" stroke-linecap="square" stroke-miterlimit="10" pointer-events="none"/><g fill="rgb(0, 0, 0)" font-family="Helvetica" pointer-events="none" clip-path="url(#mx-clip-380-281-93-30-0)" font-size="12px"><text x="381.5" y="300.5">uuid (PK)</text></g><rect x="283" y="311" width="91" height="30" fill="#f5f5f5" stroke="none" pointer-events="none"/><path d="M 283 311 M 374 311 M 374 341 M 283 341" fill="none" stroke="#666666" stroke-linecap="square" stroke-miterlimit="10" pointer-events="none"/><g fill="#333333" font-family="Helvetica" pointer-events="none" clip-path="url(#mx-clip-283-311-91-30-0)" text-anchor="middle" font-size="12px"><text x="328" y="330.5">profile_type </text></g><rect x="374" y="311" width="99" height="30" fill="#fff2cc" stroke="none" pointer-events="none"/><path d="M 374 311 M 473 311 M 473 341 M 374 341" fill="none" stroke="#d6b656" stroke-linecap="square" stroke-miterlimit="10" pointer-events="none"/><g fill="rgb(0, 0, 0)" font-family="Helvetica" pointer-events="none" clip-path="url(#mx-clip-380-311-93-30-0)" font-size="12px"><text x="381.5" y="330.5">Int</text></g><rect x="283" y="341" width="91" height="30" fill="#f5f5f5" stroke="none" pointer-events="none"/><path d="M 283 341 M 374 341 M 374 371 M 283 371" fill="none" stroke="#666666" stroke-linecap="square" stroke-miterlimit="10" pointer-events="none"/><g fill="#333333" font-family="Helvetica" pointer-events="none" clip-path="url(#mx-clip-283-341-91-30-0)" text-anchor="middle" font-size="12px"><text x="328" y="360.5">email</text></g><rect x="374" y="341" width="99" height="30" fill="#fff2cc" stroke="none" pointer-events="none"/><path d="M 374 341 M 473 341 M 473 371 M 374 371" fill="none" stroke="#d6b656" stroke-linecap="square" stroke-miterlimit="10" pointer-events="none"/><g fill="rgb(0, 0, 0)" font-family="Helvetica" pointer-events="none" clip-path="url(#mx-clip-380-341-93-30-0)" font-size="12px"><text x="381.5" y="360.5">string</text></g><rect x="283" y="371" width="91" height="30" fill="#f5f5f5" stroke="none" pointer-events="none"/><path d="M 283 371 M 374 371 M 374 401 M 283 401" fill="none" stroke="#666666" stroke-linecap="square" stroke-miterlimit="10" pointer-events="none"/><g fill="#333333" font-family="Helvetica" pointer-events="none" clip-path="url(#mx-clip-283-371-91-30-0)" text-anchor="middle" font-size="12px"><text x="328" y="390.5">username</text></g><rect x="374" y="371" width="99" height="30" fill="#fff2cc" stroke="none" pointer-events="none"/><path d="M 374 371 M 473 371 M 473 401 M 374 401" fill="none" stroke="#d6b656" stroke-linecap="square" stroke-miterlimit="10" pointer-events="none"/><g fill="rgb(0, 0, 0)" font-family="Helvetica" pointer-events="none" clip-path="url(#mx-clip-380-371-93-30-0)" font-size="12px"><text x="381.5" y="390.5">string</text></g><rect x="283" y="401" width="91" height="30" fill="#f5f5f5" stroke="none" pointer-events="none"/><path d="M 283 401 M 374 401 M 374 431 M 283 431" fill="none" stroke="#666666" stroke-linecap="square" stroke-miterlimit="10" pointer-events="none"/><g fill="#333333" font-family="Helvetica" pointer-events="none" clip-path="url(#mx-clip-283-401-91-30-0)" text-anchor="middle" font-size="12px"><text x="328" y="420.5">password</text></g><rect x="374" y="401" width="99" height="30" fill="#fff2cc" stroke="none" pointer-events="none"/><path d="M 374 401 M 473 401 M 473 431 M 374 431" fill="none" stroke="#d6b656" stroke-linecap="square" stroke-miterlimit="10" pointer-events="none"/><g fill="rgb(0, 0, 0)" font-family="Helvetica" pointer-events="none" clip-path="url(#mx-clip-380-401-93-30-0)" font-size="12px"><text x="381.5" y="420.5">string</text></g></g></svg>